<svg xmlns="http://www.w3.org/2000/svg" width="185.027" height="185.025" viewBox="0 0 185.027 185.025">
  <g id="Medium-M" transform="translate(-1696.04 -1040.258)">
    <path id="Path_59" data-name="Path 59" d="M1788.51,1225.283c50.7,0,92.557-41.851,92.557-92.468,0-50.706-41.943-92.557-92.647-92.557-50.616,0-92.38,41.851-92.38,92.557C1696.04,1183.432,1737.893,1225.283,1788.51,1225.283Zm0-18.511a74,74,0,1,1,74.045-73.957A73.679,73.679,0,0,1,1788.51,1206.772Zm0-58.933c4.828,0,7.69-2.773,7.868-7.96l1.343-43.014c.09-5.276-3.846-9.033-9.3-9.033-5.634,0-9.39,3.667-9.3,8.943l1.341,43.194C1780.55,1145.066,1783.411,1147.839,1788.51,1147.839Zm0,29.69c5.723,0,10.461-4.2,10.461-9.837,0-5.723-4.65-9.837-10.461-9.837-5.9,0-10.553,4.2-10.553,9.837S1782.7,1177.529,1788.51,1177.529Z" fill="#ff6f61"/>
  </g>
</svg>
